<svg width="760" height="820" viewBox="0 0 760 820" fill="none" xmlns="http://www.w3.org/2000/svg">
  <rect width="760" height="820" fill="none"/>
  <circle cx="585" cy="165" r="88" fill="#FA8A43" fill-opacity="0.55"/>
  <rect x="70" y="108" width="180" height="180" rx="54" fill="#EA6865" fill-opacity="0.45"/>
  <rect x="418" y="510" width="184" height="134" rx="30" fill="#081225" fill-opacity="0.42"/>
  <path d="M190 615C190 508.961 275.961 423 382 423C488.039 423 574 508.961 574 615V720H190V615Z" fill="#F8FBFF" fill-opacity="0.2"/>
  <path d="M250 333C250 266.174 304.174 212 371 212C437.826 212 492 266.174 492 333V720H250V333Z" fill="#F8FBFF" fill-opacity="0.14"/>
  <g opacity="0.96">
    <path d="M276 375C276 321.981 318.981 279 372 279H390C443.019 279 486 321.981 486 375V713H276V375Z" fill="#FFF4EB"/>
    <path d="M285 410H477V713H285V410Z" fill="#4562B0"/>
    <path d="M304 407C304 359.504 342.504 321 390 321C437.496 321 476 359.504 476 407V430H304V407Z" fill="#081225"/>
    <path d="M340 323C323.5 334 312 354 309 383C341 365 374 362 408 368C430 372 453 381 476 397C471 351 435 318 390 318C371 318 354 319 340 323Z" fill="#081225"/>
    <circle cx="390" cy="391" r="54" fill="#B76D45"/>
    <path d="M338 382C356 361 391 356 433 372C419 341 385 326 356 341C338 351 332 365 338 382Z" fill="#081225"/>
    <path d="M335 446C363 473 414 474 442 446V524H335V446Z" fill="#B76D45"/>
    <path d="M312 516C312 480.102 341.102 451 377 451H402C437.898 451 467 480.102 467 516V713H312V516Z" fill="#4562B0"/>
    <path d="M322 487L386 552L454 487C443 466 423 451 402 451H377C354 451 334 465 322 487Z" fill="#F8FBFF"/>
    <path d="M243 548C243 518.177 267.177 494 297 494H322V713H243V548Z" fill="#FA8A43"/>
    <path d="M456 494H481C510.823 494 535 518.177 535 548V713H456V494Z" fill="#FA8A43"/>
    <rect x="208" y="618" width="202" height="118" rx="20" fill="#081225"/>
    <rect x="232" y="641" width="155" height="72" rx="14" fill="#F8FBFF" fill-opacity="0.88"/>
    <path d="M283 356C302 297 341 258 399 253C363 223 301 230 266 272C241 302 242 341 251 372L283 356Z" fill="#081225"/>
  </g>
  <g opacity="0.92">
    <path d="M110 476C110 424.086 152.086 382 204 382H221C272.914 382 315 424.086 315 476V720H110V476Z" fill="#F8FBFF" fill-opacity="0.18"/>
    <path d="M127 508C127 469.34 158.34 438 197 438H225C263.66 438 295 469.34 295 508V720H127V508Z" fill="#EA6865"/>
    <circle cx="211" cy="388" r="50" fill="#A85F3B"/>
    <path d="M166 377C174 325 218 302 260 323C282 334 295 354 298 382C261 370 224 369 191 387C181 393 173 390 166 377Z" fill="#081225"/>
    <path d="M172 335C190 294 238 277 277 306C260 309 251 321 244 337C220 324 196 325 172 335Z" fill="#081225"/>
    <path d="M168 443C187 468 235 469 254 443V506H168V443Z" fill="#A85F3B"/>
    <path d="M139 482L211 558L285 482C272 455 250 438 225 438H197C173 438 151 455 139 482Z" fill="#FFF4EB"/>
    <path d="M95 556C95 527.833 117.833 505 146 505H153V720H95V556Z" fill="#4562B0"/>
    <path d="M270 505H277C305.167 505 328 527.833 328 556V720H270V505Z" fill="#4562B0"/>
    <path d="M88 548C70 555 60 573 64 592L91 713H144L119 570C116 553 102 542 88 548Z" fill="#081225"/>
    <rect x="66" y="569" width="64" height="150" rx="28" fill="#4A4A99"/>
  </g>
  <path d="M168 748H590" stroke="#F8FBFF" stroke-opacity="0.65" stroke-width="18" stroke-linecap="round"/>
  <path d="M220 773H536" stroke="#FA8A43" stroke-opacity="0.8" stroke-width="12" stroke-linecap="round"/>
</svg>
